# xmcd
#
# Track frame offsets:
#	150
#	19649
#	36198
#	53621
#	74951
#	91340
#	111273
#	129716
#	147739
#	169215
#
# Disc length: 2445 seconds
#
# Revision: 0
# Processed by: cddbd v1.5.2PL0 Copyright (c) Steve Scherf et al.
# Submitted via: EasyCDDAExtractor 15.3.0.1
#
DISCID=96098b0a
DTITLE=Nhat Hao - HSD - Hay Quen Di Vang
DYEAR=2000
DGENRE=Vietnamese
TTITLE0=Dieu Nhay Vui
TTITLE1=Em Yeu Hon Anh
TTITLE2=Khong That Long
TTITLE3=Hay Quen Di Vang
TTITLE4=Mai Yeu Em
TTITLE5=Hay Nhin Ro Tinh Yeu
TTITLE6=Sai Lam
TTITLE7=Em Yeu Long Anh
TTITLE8=Thang Nam Dan Phai
TTITLE9=Den Voi Em
EXTD=
EXTT0=
EXTT1=
EXTT2=
EXTT3=
EXTT4=
EXTT5=
EXTT6=
EXTT7=
EXTT8=
EXTT9=
PLAYORDER=
